<?xml version="1.0" encoding="UTF-8"?>
<svg version="1.1" xmlns="http://www.w3.org/2000/svg" width="300" height="300">
<path d="M0 0 C99 0 198 0 300 0 C300 99 300 198 300 300 C201 300 102 300 0 300 C0 201 0 102 0 0 Z " fill="#4846E3" transform="translate(0,0)"/>
<path d="M0 0 C2.15437321 0.01608287 4.30686451 0.00004127 6.46118164 -0.01904297 C19.35777084 -0.03938705 31.92194835 1.80354808 44.15844727 6.01611328 C44.89949707 6.26989746 45.64054688 6.52368164 46.40405273 6.78515625 C78.8446917 18.39122259 103.82580394 43.19109284 118.88110352 73.76220703 C126.77827996 91.23294264 129.22094727 107.1200135 129.22094727 126.39111328 C45.73094727 126.39111328 -37.75905273 126.39111328 -123.77905273 126.39111328 C-122.61545948 105.44643474 -122.61545948 105.44643474 -120.59155273 97.70361328 C-120.37160645 96.82769531 -120.15166016 95.95177734 -119.92504883 95.04931641 C-114.23308859 73.23877782 -103.22366765 54.71532101 -87.77905273 38.39111328 C-86.64016602 37.15554687 -86.64016602 37.15554687 -85.47827148 35.89501953 C-72.44319278 22.2199206 -55.85777739 12.42407187 -38.15405273 6.01611328 C-37.5348999 5.78956055 -36.91574707 5.56300781 -36.27783203 5.32958984 C-24.34606216 1.27872732 -12.51350909 -0.11052584 0 0 Z " fill="#FEFEFE" transform="translate(146.779052734375,173.60888671875)"/>
<path d="M0 0 C46.2 0 92.4 0 140 0 C140 95.04 140 190.08 140 288 C139.67 288 139.34 288 139 288 C138.91363281 287.05382812 138.82726562 286.10765625 138.73828125 285.1328125 C135.2777882 251.18867966 120.31295892 219.98344104 96.59667969 195.65234375 C95.27165997 194.28113069 93.97905047 192.87868594 92.6953125 191.46875 C79.38364203 177.17294825 58.7370367 164.35343906 40 159 C40 158.34 40 157.68 40 157 C41.57421875 155.703125 41.57421875 155.703125 43.6875 154.25 C47.50107933 151.49238532 50.10835409 148.69488088 53 145 C53.63679688 144.37480469 54.27359375 143.74960938 54.9296875 143.10546875 C64.63885553 133.23142805 70.60863429 120.23937 74 107 C74.226875 106.11828125 74.45375 105.2365625 74.6875 104.328125 C77.6308609 90.83772088 76.42298488 77.24546322 73 64 C72.74476563 62.99710938 72.48953125 61.99421875 72.2265625 60.9609375 C66.01073439 39.80431156 50.95596428 22.01134227 32 11 C21.81624057 5.54103128 11.25260682 3.1688698 0 1 C0 0.67 0 0.34 0 0 Z " fill="#FDFEFE" transform="translate(160,0)"/>
<path d="M0 0 C45.54 0 91.08 0 138 0 C134.16300571 1.91849715 130.39814182 3.1605419 126.3125 4.375 C113.09571421 8.43417661 101.71979315 14.10289837 91.55859375 23.71484375 C90 25 90 25 88 25 C87.72414063 25.60070312 87.44828125 26.20140625 87.1640625 26.8203125 C86 29 86 29 83.375 31.875 C68.90737174 48.46501871 62.50881655 72.06017212 63.78857422 93.71972656 C65.72187229 114.57077039 75.1777875 132.59810607 89 148 C90.485 148.99 90.485 148.99 92 150 C92 150.66 92 151.32 92 152 C92.5775 152.268125 93.155 152.53625 93.75 152.8125 C96.05550043 154.02929189 98.02056192 155.30333879 100 157 C100 157.66 100 158.32 100 159 C98.93523437 159.4125 97.87046875 159.825 96.7734375 160.25 C83.64523107 165.42974336 71.91560085 171.6393164 60.5625 180.0625 C59.9120874 180.54485107 59.2616748 181.02720215 58.59155273 181.52416992 C54.01774865 185.010792 49.98673569 188.86238349 46 193 C41 198 41 198 39.5234375 199.30078125 C29.93514533 208.09383592 22.7245483 220.43834206 17 232 C16.43796875 233.10214844 15.8759375 234.20429688 15.296875 235.33984375 C6.87923493 252.2486404 2.96366822 269.27597116 1 288 C0.67 288 0.34 288 0 288 C0 192.96 0 97.92 0 0 Z " fill="#FDFEFE" transform="translate(0,0)"/>
<path d="M0 0 C3.61686814 2.75854415 6.83744192 5.73524077 10 9 C10.64582031 9.64839844 11.29164063 10.29679687 11.95703125 10.96484375 C19.20979224 18.69164141 23.46969548 27.78776379 26 38 C26.25801392 38.92341187 26.25801392 38.92341187 26.52124023 39.86547852 C30.57508059 57.93928079 24.55810571 75.10222288 15.4375 90.4375 C7.36503565 102.81358099 -7.92592887 111.85185253 -22.1875 115.125 C-40.42520725 118.45819167 -57.39846868 115.13432804 -73 105 C-75.21052497 103.43151835 -77.04828527 101.89896568 -79 100 C-79 99.34 -79 98.68 -79 98 C-79.56589844 97.80019531 -80.13179687 97.60039062 -80.71484375 97.39453125 C-83.88107915 95.4623158 -85.56357537 92.72465192 -87.5625 89.6875 C-87.94857422 89.11837891 -88.33464844 88.54925781 -88.73242188 87.96289062 C-89.83935227 86.32040957 -90.92021049 84.6604498 -92 83 C-92.54140625 82.18273437 -93.0828125 81.36546875 -93.640625 80.5234375 C-98.38861672 71.70963678 -99.3648735 61.40269662 -99.375 51.5625 C-99.37653076 50.7470874 -99.37806152 49.9316748 -99.37963867 49.09155273 C-99.22033842 40.34249838 -97.37922534 32.832512 -93.375 25.0625 C-93.02018555 24.3708374 -92.66537109 23.6791748 -92.29980469 22.96655273 C-84.32248253 7.86007198 -72.08145123 -2.15900724 -56 -8 C-36.27351737 -13.79287143 -17.38063103 -10.80705088 0 0 Z " fill="#FDFDFE" transform="translate(186,34)"/>
<path d="M0 0 C3.3 0 6.6 0 10 0 C10 0.66 10 1.32 10 2 C10.84498047 2.18949219 10.84498047 2.18949219 11.70703125 2.3828125 C14.13747617 3.03700381 16.36365958 3.90953973 18.6875 4.875 C22.79851323 6.56203802 26.91794228 7.96390841 31.1875 9.19140625 C33 10 33 10 35 13 C37.30144109 14.07136051 39.6340213 15.07989717 42 16 C42 16.99 42 17.98 42 19 C44.31 19 46.62 19 49 19 C49.05027344 19.57878906 49.10054687 20.15757812 49.15234375 20.75390625 C50.70864182 24.87773754 55.04300814 26.60462814 58.62890625 28.90234375 C61 31 61 31 61.33984375 33.75390625 C61.22769531 34.49511719 61.11554688 35.23632812 61 36 C61.804375 36.268125 62.60875 36.53625 63.4375 36.8125 C64.283125 37.204375 65.12875 37.59625 66 38 C66.33 38.99 66.66 39.98 67 41 C67.99 41 68.98 41 70 41 C70 41.66 70 42.32 70 43 C70.99 43 71.98 43 73 43 C73.99 46.3 74.98 49.6 76 53 C76.66 53 77.32 53 78 53 C78.28875 53.804375 78.5775 54.60875 78.875 55.4375 C79.73262568 58.1326468 79.73262568 58.1326468 82 59 C82 61.31 82 63.62 82 66 C84.49064888 66.68707555 86.37886292 67 89 67 C89.04898438 67.85722656 89.09796875 68.71445313 89.1484375 69.59765625 C89.676914 78.47943184 89.676914 78.47943184 92 87 C92.66 87.33 93.32 87.66 94 88 C95.7463182 95.24398659 96.25164681 102.576419 96 110 C96.66 110 97.32 110 98 110 C98 113.3 98 116.6 98 120 C103.28 120 108.56 120 114 120 C113.61044814 101.69106243 111.86374656 82.82413805 104 66 C103.34 65.67 102.68 65.34 102 65 C102 64.34 102 63.68 102 63 C101.34 63 100.68 63 100 63 C99.86722656 62.36191406 99.73445313 61.72382813 99.59765625 61.06640625 C99.42105469 60.24011719 99.24445313 59.41382813 99.0625 58.5625 C98.88847656 57.73878906 98.71445312 56.91507813 98.53515625 56.06640625 C98.19247006 54.02338796 98.19247006 54.02338796 97 53 C96.95936168 51.33382885 96.957279 49.66611905 97 48 C96.401875 47.87625 95.80375 47.7525 95.1875 47.625 C93 47 93 47 90 45 C89.875 42.125 89.875 42.125 90 39 C89.56058477 36.73433657 89.56058477 36.73433657 89 35 C92.77265066 38.35441563 94.98100941 42.06872627 97.375 46.4375 C97.7678418 47.1483374 98.16068359 47.8591748 98.56542969 48.59155273 C111.46480171 72.19550191 118 96.16035133 118 123 C110.08 123 102.16 123 94 123 C93.773125 119.41125 93.54625 115.8225 93.3125 112.125 C91.16319345 84.23320667 79.97391066 58.55561909 61 38 C60.13503906 37.05253906 59.27007812 36.10507813 58.37890625 35.12890625 C42.12365935 18.10075014 22.37524824 7.67331965 0 1 C0 0.67 0 0.34 0 0 Z " fill="#5A3CC4" transform="translate(182,177)"/>
<path d="M0 0 C1.81226615 1.34253692 3.56323906 2.76751891 5.29296875 4.21484375 C4.63296875 4.54484375 3.97296875 4.87484375 3.29296875 5.21484375 C-3.44896673 2.73097278 -3.44896673 2.73097278 -4.70703125 0.21484375 C-6.31848706 -0.26516436 -7.93384406 -0.73439946 -9.5625 -1.15234375 C-11.95476589 -1.85825828 -14.16659673 -2.79884473 -16.45703125 -3.78515625 C-21.06251778 -5.68527263 -25.54249539 -6.6436714 -30.45703125 -7.390625 C-32.70703125 -7.78515625 -32.70703125 -7.78515625 -34.70703125 -8.78515625 C-36.11890495 -8.98846606 -37.53701978 -9.14991706 -38.95703125 -9.28515625 C-41.71660927 -9.5553557 -44.29641458 -9.90748109 -47.01953125 -10.47265625 C-50.05311098 -10.82539808 -51.12196 -10.26233982 -53.70703125 -8.78515625 C-54.69703125 -9.28015625 -54.69703125 -9.28015625 -55.70703125 -9.78515625 C-56.03703125 -8.79515625 -56.36703125 -7.80515625 -56.70703125 -6.78515625 C-57.47015625 -6.97078125 -58.23328125 -7.15640625 -59.01953125 -7.34765625 C-61.796705 -8.01334798 -61.796705 -8.01334798 -64.70703125 -6.78515625 C-65.40828125 -6.66140625 -66.10953125 -6.53765625 -66.83203125 -6.41015625 C-73.43059533 -4.9756858 -78.80421841 -3.05630283 -84.1640625 1.1015625 C-85.70703125 2.21484375 -85.70703125 2.21484375 -88.14453125 3.08984375 C-91.67309378 4.63896876 -94.06777493 7.11127255 -96.83984375 9.75390625 C-98.70703125 11.21484375 -98.70703125 11.21484375 -101.70703125 11.21484375 C-101.37703125 12.86484375 -101.04703125 14.51484375 -100.70703125 16.21484375 C-101.69703125 16.56546875 -102.68703125 16.91609375 -103.70703125 17.27734375 C-109.2840715 19.720834 -114.16721441 23.22386619 -116.99609375 28.71875 C-117.66553567 30.43323676 -118.30129943 32.16135453 -118.8984375 33.90234375 C-119.83490396 36.58054733 -121.13588062 38.8581178 -122.70703125 41.21484375 C-123.69703125 40.88484375 -124.68703125 40.55484375 -125.70703125 40.21484375 C-121.77372502 31.81024108 -117.76832139 24.32167112 -111.70703125 17.21484375 C-111.11535156 16.42078125 -110.52367188 15.62671875 -109.9140625 14.80859375 C-107.25164923 11.67966912 -104.32639847 9.27729626 -101.08203125 6.77734375 C-100.45522461 6.29434814 -99.82841797 5.81135254 -99.18261719 5.3137207 C-88.67328944 -2.68678111 -78.32304738 -7.08503229 -65.70703125 -10.78515625 C-65.05686035 -10.98383301 -64.40668945 -11.18250977 -63.73681641 -11.38720703 C-42.92950206 -17.25943522 -17.79810848 -11.73699218 0 0 Z " fill="#3E67DE" transform="translate(195.70703125,12.78515625)"/>
<path d="M0 0 C0.94907227 0.00080566 1.89814453 0.00161133 2.87597656 0.00244141 C4.30731934 0.0036499 4.30731934 0.0036499 5.76757812 0.00488281 C19.230758 0.12185422 19.230758 0.12185422 25.00097656 2.18994141 C25.33097656 2.84994141 25.66097656 3.50994141 26.00097656 4.18994141 C24.96505371 4.16375732 23.92913086 4.13757324 22.86181641 4.1105957 C-4.25996745 3.48625399 -27.41996992 4.58224882 -51.99902344 17.18994141 C-52.63275879 17.50833984 -53.26649414 17.82673828 -53.91943359 18.15478516 C-63.36010429 22.96112609 -71.26500578 29.03147855 -78.99902344 36.18994141 C-79.5173877 36.66447754 -80.03575195 37.13901367 -80.56982422 37.62792969 C-94.39940529 50.41736677 -106.53171535 66.9655811 -111.99902344 85.18994141 C-112.65902344 84.19994141 -113.31902344 83.20994141 -113.99902344 82.18994141 C-114.98902344 81.85994141 -115.97902344 81.52994141 -116.99902344 81.18994141 C-116.99902344 80.19994141 -116.99902344 79.20994141 -116.99902344 78.18994141 C-114.52402344 77.69494141 -114.52402344 77.69494141 -111.99902344 77.18994141 C-111.85464844 76.44744141 -111.71027344 75.70494141 -111.56152344 74.93994141 C-111.09714852 72.66966401 -110.58038775 70.43234661 -109.99902344 68.18994141 C-109.33902344 68.18994141 -108.67902344 68.18994141 -107.99902344 68.18994141 C-107.99902344 66.86994141 -107.99902344 65.54994141 -107.99902344 64.18994141 C-107.00902344 64.18994141 -106.01902344 64.18994141 -104.99902344 64.18994141 C-104.97324219 63.49126953 -104.94746094 62.79259766 -104.92089844 62.07275391 C-104.86417969 61.16267578 -104.80746094 60.25259766 -104.74902344 59.31494141 C-104.67941406 57.95755859 -104.67941406 57.95755859 -104.60839844 56.57275391 C-103.99902344 54.18994141 -103.99902344 54.18994141 -102.13964844 52.86962891 C-99.99902344 52.18994141 -99.99902344 52.18994141 -96.99902344 52.18994141 C-96.75152344 51.57119141 -96.50402344 50.95244141 -96.24902344 50.31494141 C-94.79273704 47.83925454 -93.62089838 47.23869138 -90.99902344 46.18994141 C-90.99902344 45.52994141 -90.99902344 44.86994141 -90.99902344 44.18994141 C-90.33902344 44.18994141 -89.67902344 44.18994141 -88.99902344 44.18994141 C-88.66902344 42.20994141 -88.33902344 40.22994141 -87.99902344 38.18994141 C-86.51402344 37.69494141 -86.51402344 37.69494141 -84.99902344 37.18994141 C-84.33902344 36.52994141 -83.67902344 35.86994141 -82.99902344 35.18994141 C-82.00902344 35.68494141 -82.00902344 35.68494141 -80.99902344 36.18994141 C-81.32902344 35.19994141 -81.65902344 34.20994141 -81.99902344 33.18994141 C-81.21527344 33.10744141 -80.43152344 33.02494141 -79.62402344 32.93994141 C-78.75777344 32.69244141 -77.89152344 32.44494141 -76.99902344 32.18994141 C-76.56589844 31.29275391 -76.56589844 31.29275391 -76.12402344 30.37744141 C-74.81080263 27.8239565 -73.92323038 27.43888929 -71.43652344 26.12744141 C-67.74785434 24.55506009 -67.74785434 24.55506009 -66.99902344 21.18994141 C-62.46214714 18.16535721 -58.0457331 16.40678995 -52.81933594 14.90087891 C-50.79754073 14.3456802 -50.79754073 14.3456802 -49.99902344 12.18994141 C-48.34902344 12.18994141 -46.69902344 12.18994141 -44.99902344 12.18994141 C-44.99902344 11.52994141 -44.99902344 10.86994141 -44.99902344 10.18994141 C-38.36752121 6.449094 -31.44501261 5.3354782 -23.99902344 4.18994141 C-23.99902344 3.52994141 -23.99902344 2.86994141 -23.99902344 2.18994141 C-22.855625 2.12935547 -21.71222656 2.06876953 -20.53417969 2.00634766 C-19.04328039 1.92195713 -17.55239569 1.83730839 -16.06152344 1.75244141 C-15.30677734 1.713125 -14.55203125 1.67380859 -13.77441406 1.63330078 C-8.78013394 1.34215441 -5.11713681 0.04173091 0 0 Z " fill="#5442BC" transform="translate(143.9990234375,170.81005859375)"/>
<path d="M0 0 C4.11275539 1.61143047 8.35006981 1.92554527 12.7109375 2.484375 C15.671875 3.046875 15.671875 3.046875 18.671875 5.046875 C19.620625 5.315 20.569375 5.583125 21.546875 5.859375 C25.27769379 7.27708614 27.01187885 9.10687925 29.671875 12.046875 C30.435 12.81 31.198125 13.573125 31.984375 14.359375 C32.54125 14.91625 33.098125 15.473125 33.671875 16.046875 C33.341875 16.706875 33.011875 17.366875 32.671875 18.046875 C32.24519531 17.68335937 31.81851563 17.31984375 31.37890625 16.9453125 C18.66345581 6.7205173 1.99178251 1.28688497 -14.328125 3.046875 C-28.28596843 5.44945461 -40.83147721 10.26590774 -51.328125 20.046875 C-51.988125 20.046875 -52.648125 20.046875 -53.328125 20.046875 C-53.73611328 20.92279297 -53.73611328 20.92279297 -54.15234375 21.81640625 C-55.31058488 24.01360122 -56.59817862 25.79309024 -58.140625 27.734375 C-63.65839707 35.01514253 -67.05608336 42.19884291 -69.328125 51.046875 C-69.988125 51.046875 -70.648125 51.046875 -71.328125 51.046875 C-70.668125 46.756875 -70.008125 42.466875 -69.328125 38.046875 C-68.668125 38.046875 -68.008125 38.046875 -67.328125 38.046875 C-67.328125 37.386875 -67.328125 36.726875 -67.328125 36.046875 C-66.668125 36.046875 -66.008125 36.046875 -65.328125 36.046875 C-65.18375 35.4075 -65.039375 34.768125 -64.890625 34.109375 C-64.328125 32.046875 -64.328125 32.046875 -63.328125 31.046875 C-62.93358277 29.20087812 -62.58635634 27.34461678 -62.265625 25.484375 C-62.08902344 24.47246094 -61.91242188 23.46054687 -61.73046875 22.41796875 C-61.59769531 21.63550781 -61.46492188 20.85304688 -61.328125 20.046875 C-60.54566406 19.92183594 -59.76320313 19.79679687 -58.95703125 19.66796875 C-55.67974825 18.89369238 -54.6015181 17.46693863 -52.328125 15.046875 C-51.00245301 14.36510084 -49.67058812 13.69496064 -48.328125 13.046875 C-47.998125 12.386875 -47.668125 11.726875 -47.328125 11.046875 C-46.338125 10.716875 -45.348125 10.386875 -44.328125 10.046875 C-44.080625 9.41136719 -43.833125 8.77585937 -43.578125 8.12109375 C-42.328125 6.046875 -42.328125 6.046875 -39.203125 4.81640625 C-37.924375 4.50058594 -36.645625 4.18476563 -35.328125 3.859375 C-34.65330078 3.69066895 -33.97847656 3.52196289 -33.28320312 3.34814453 C-28.68081703 2.24142204 -24.17472561 1.58063841 -19.4609375 1.26171875 C-17.04455548 1.08426355 -17.04455548 1.08426355 -13.703125 -0.015625 C-9.06144725 -1.30497993 -4.588275 -1.87842131 0 0 Z " fill="#4768D7" transform="translate(158.328125,20.953125)"/>
<path d="M0 0 C0.495 1.98 0.495 1.98 1 4 C0.50628906 4.32613281 0.01257812 4.65226563 -0.49609375 4.98828125 C-1.13675781 5.42527344 -1.77742188 5.86226562 -2.4375 6.3125 C-3.39462891 6.95638672 -3.39462891 6.95638672 -4.37109375 7.61328125 C-6.2885684 9.0034052 -6.2885684 9.0034052 -7 12 C-7.804375 12.45375 -8.60875 12.9075 -9.4375 13.375 C-12.17370308 14.75750684 -12.17370308 14.75750684 -12.9375 17.375 C-14.41591462 21.02755376 -16.95258858 22.57450928 -20 25 C-22.48070317 27.56624466 -22.96192875 28.71174624 -23.4375 32.3125 C-24.2738229 37.79506123 -26.18494696 41.61710245 -30.625 45 C-33.76095034 47.64080028 -34.11207773 50.0783433 -35 54 C-35.495 54.495 -35.495 54.495 -36 55 C-35.7525 56.0725 -35.505 57.145 -35.25 58.25 C-35 62 -35 62 -37.25 64.875 C-40 67 -40 67 -43 68 C-42.97679687 68.65484375 -42.95359375 69.3096875 -42.9296875 69.984375 C-42.76012429 78.55942858 -43.86196884 86.69940843 -46 95 C-46.52918379 97.57977099 -47.02368619 100.14888461 -47.4375 102.75 C-47.623125 103.4925 -47.80875 104.235 -48 105 C-48.99 105.495 -48.99 105.495 -50 106 C-50.05532063 103.7502943 -50.0933712 101.50016349 -50.125 99.25 C-50.14820313 97.99703125 -50.17140625 96.7440625 -50.1953125 95.453125 C-49.98897087 85.68931097 -47.5008184 76.43883472 -44.375 67.25 C-43.84821655 65.69019409 -43.84821655 65.69019409 -43.31079102 64.09887695 C-36.2205234 43.67151427 -24.91272545 23.83592448 -9 9 C-8.113125 8.113125 -7.22625 7.22625 -6.3125 6.3125 C-4.20833333 4.20833333 -2.10416667 2.10416667 0 0 Z " fill="#5C44C1" transform="translate(51,187)"/>
<path d="M0 0 C2.53953953 0.34898535 3.68853944 0.60672294 5.30859375 2.65234375 C15.98871206 24.27126835 17.83051739 48.00552538 11 71 C9.90718887 74.17457119 8.60815481 77.0571861 7 80 C6.21496094 81.47339844 6.21496094 81.47339844 5.4140625 82.9765625 C3.96482521 85.66411522 2.4933851 88.33679657 1 91 C0.67 89.68 0.34 88.36 0 87 C0.66 87 1.32 87 2 87 C2.33 84.36 2.66 81.72 3 79 C3.99 79 4.98 79 6 79 C6.04898438 78.34773438 6.09796875 77.69546875 6.1484375 77.0234375 C6.77936469 69.64811623 6.77936469 69.64811623 8 66.0625 C9.49889198 61.47214332 9.6755407 56.79858235 10 52 C10.33 52 10.66 52 11 52 C11.05855764 48.00006253 11.09378299 44.00023692 11.125 40 C11.14175781 38.87464844 11.15851563 37.74929687 11.17578125 36.58984375 C11.21208835 30.38132999 11.02780269 24.89906236 9 19 C8.34 18.67 7.68 18.34 7 18 C7 17.34 7 16.68 7 16 C5.35 16.33 3.7 16.66 2 17 C1.875 11.25 1.875 11.25 3 9 C2.92680354 6.24668699 2.47690952 3.73139087 2 1 C1.34 0.67 0.68 0.34 0 0 Z " fill="#5267DA" transform="translate(222,43)"/>
<path d="M0 0 C3.3 0 6.6 0 10 0 C10 0.66 10 1.32 10 2 C10.84498047 2.18949219 10.84498047 2.18949219 11.70703125 2.3828125 C14.13747617 3.03700381 16.36365958 3.90953973 18.6875 4.875 C22.79851323 6.56203802 26.91794228 7.96390841 31.1875 9.19140625 C33 10 33 10 35 13 C37.30144109 14.07136051 39.6340213 15.07989717 42 16 C42 16.99 42 17.98 42 19 C44.31 19 46.62 19 49 19 C49.05027344 19.57878906 49.10054687 20.15757812 49.15234375 20.75390625 C50.70864182 24.87773754 55.04300814 26.60462814 58.62890625 28.90234375 C61 31 61 31 61.33984375 33.75390625 C61.22769531 34.49511719 61.11554688 35.23632812 61 36 C61.99 36.33 62.98 36.66 64 37 C65.1875 39.5625 65.1875 39.5625 66 42 C62.10357418 38.7667956 58.48321258 35.48738841 55 31.8125 C39.64574617 16.38043745 20.62793836 7.15219214 0 1 C0 0.67 0 0.34 0 0 Z " fill="#5A49C5" transform="translate(182,177)"/>
<path d="M0 0 C0.33 0 0.66 0 1 0 C1.91871033 7.4153048 2 14.45844387 2 22 C-5.92 22 -13.84 22 -22 22 C-22 18.04 -22 14.08 -22 10 C-20.68 9.67 -19.36 9.34 -18 9 C-18 12.3 -18 15.6 -18 19 C-12.72 19 -7.44 19 -2 19 C-2.02320313 17.79601562 -2.04640625 16.59203125 -2.0703125 15.3515625 C-2.08906863 13.77604785 -2.10726899 12.20052652 -2.125 10.625 C-2.14175781 9.8309375 -2.15851563 9.036875 -2.17578125 8.21875 C-2.19335473 6.14507985 -2.10335168 4.07116759 -2 2 C-1.34 1.34 -0.68 0.68 0 0 Z " fill="#6D39CB" transform="translate(298,278)"/>
<path d="M0 0 C1.4236084 0.0012085 1.4236084 0.0012085 2.87597656 0.00244141 C4.30731934 0.0036499 4.30731934 0.0036499 5.76757812 0.00488281 C19.230758 0.12185422 19.230758 0.12185422 25.00097656 2.18994141 C25.49597656 3.17994141 25.49597656 3.17994141 26.00097656 4.18994141 C24.96505371 4.16375732 23.92913086 4.13757324 22.86181641 4.1105957 C-8.07391971 2.66343513 -8.07391971 2.66343513 -37.43652344 10.92041016 C-38.28214844 11.33935547 -39.12777344 11.75830078 -39.99902344 12.18994141 C-40.65902344 11.85994141 -41.31902344 11.52994141 -41.99902344 11.18994141 C-40.75919333 8.71028118 -39.65956822 7.41400856 -37.00683594 6.51416016 C-34.67774134 6.00050461 -32.35342311 5.57032911 -29.99902344 5.18994141 C-28.23558594 4.88056641 -28.23558594 4.88056641 -26.43652344 4.56494141 C-25.63214844 4.44119141 -24.82777344 4.31744141 -23.99902344 4.18994141 C-23.99902344 3.52994141 -23.99902344 2.86994141 -23.99902344 2.18994141 C-22.855625 2.12935547 -21.71222656 2.06876953 -20.53417969 2.00634766 C-19.04328039 1.92195713 -17.55239569 1.83730839 -16.06152344 1.75244141 C-15.30677734 1.713125 -14.55203125 1.67380859 -13.77441406 1.63330078 C-8.78013394 1.34215441 -5.11713681 0.04173091 0 0 Z " fill="#5244CC" transform="translate(143.9990234375,170.81005859375)"/>
<path d="M0 0 C0.66 0 1.32 0 2 0 C1.73445313 1.03898437 1.46890625 2.07796875 1.1953125 3.1484375 C-2.27200442 16.79136187 -4.53575467 29.98508037 -6 44 C-13.59 44 -21.18 44 -29 44 C-28.67 42.68 -28.34 41.36 -28 40 C-27.34 40 -26.68 40 -26 40 C-26 40.66 -26 41.32 -26 42 C-25.360625 41.814375 -24.72125 41.62875 -24.0625 41.4375 C-23.381875 41.293125 -22.70125 41.14875 -22 41 C-21.67 41.33 -21.34 41.66 -21 42 C-18.81707226 42.23481693 -16.62796826 42.41363323 -14.4375 42.5625 C-13.23996094 42.64628906 -12.04242187 42.73007812 -10.80859375 42.81640625 C-9.41833984 42.90728516 -9.41833984 42.90728516 -8 43 C-8.14308594 41.95199219 -8.14308594 41.95199219 -8.2890625 40.8828125 C-8.39992188 39.97273438 -8.51078125 39.06265625 -8.625 38.125 C-8.79902344 36.76761719 -8.79902344 36.76761719 -8.9765625 35.3828125 C-8.98429687 34.59648437 -8.99203125 33.81015625 -9 33 C-8.34 32.34 -7.68 31.68 -7 31 C-6.60823218 28.14739408 -6.60823218 28.14739408 -6.5 24.875 C-6.26104559 20.87915128 -5.94165685 17.1737978 -4.875 13.3125 C-3.64945363 10.15041626 -3.64945363 10.15041626 -5 8 C-4.34 8 -3.68 8 -3 8 C-2.690625 6.865625 -2.38125 5.73125 -2.0625 4.5625 C-1 1 -1 1 0 0 Z " fill="#5E37BD" transform="translate(29,256)"/>
<path d="M0 0 C1.1875 2.1875 1.1875 2.1875 2 5 C0.875 7.4375 0.875 7.4375 -1 10 C-4.57985925 15.19679766 -7.20673502 20.47946175 -9.73828125 26.25 C-11 29 -11 29 -13 32 C-13.33 31.01 -13.66 30.02 -14 29 C-14.99 28.67 -15.98 28.34 -17 28 C-17 27.01 -17 26.02 -17 25 C-15.35 24.67 -13.7 24.34 -12 24 C-11.855625 23.2575 -11.71125 22.515 -11.5625 21.75 C-11.09812508 19.47972261 -10.58136431 17.24240521 -10 15 C-9.34 15 -8.68 15 -8 15 C-8 13.68 -8 12.36 -8 11 C-7.01 11 -6.02 11 -5 11 C-4.95101562 10.28972656 -4.90203125 9.57945312 -4.8515625 8.84765625 C-4.77679688 7.92855469 -4.70203125 7.00945312 -4.625 6.0625 C-4.55539063 5.14597656 -4.48578125 4.22945312 -4.4140625 3.28515625 C-4.27742188 2.53105469 -4.14078125 1.77695313 -4 1 C-2 0 -2 0 0 0 Z " fill="#5637D0" transform="translate(44,224)"/>
<path d="M0 0 C0.66 0.99 1.32 1.98 2 3 C1.36079057 5.00894394 0.68960962 7.00779443 0 9 C0 10.03125 0 11.0625 0 12.125 C0 18.84115792 -1.31298386 25.50711435 -3 32 C-3.52918379 34.57977099 -4.02368619 37.14888461 -4.4375 39.75 C-4.623125 40.4925 -4.80875 41.235 -5 42 C-5.99 42.495 -5.99 42.495 -7 43 C-7.37828344 27.61647356 -4.84017725 14.55747966 0 0 Z " fill="#6A41C2" transform="translate(8,250)"/>
<path d="M0 0 C6.73797832 1.36485242 12.26747692 3.8922767 18.3125 7.125 C19.23877197 7.61492432 20.16504395 8.10484863 21.11938477 8.60961914 C27.8809267 12.24907864 33.96368685 16.24919798 40 21 C41.97714327 22.37388105 43.97999982 23.68972961 46 25 C43 26 43 26 40.6953125 24.9609375 C33.52229299 20.53503185 33.52229299 20.53503185 30.4375 17.375 C27.54722113 14.55883085 24.76779275 13.42031009 21.07421875 11.90625 C18.75964608 10.89498661 16.97946217 9.55529171 15 8 C10.56171725 5.84426266 5.80399846 4.98382539 1 4 C0.67 2.68 0.34 1.36 0 0 Z " fill="#564ABF" transform="translate(200,159)"/>
<path d="M0 0 C0.99 0 1.98 0 3 0 C3.28875 1.134375 3.5775 2.26875 3.875 3.4375 C4.24625 4.613125 4.6175 5.78875 5 7 C5.66 7.33 6.32 7.66 7 8 C9.0604443 16.20362084 9.27275114 24.5901732 9 33 C6.73449186 30.73449186 6.59389611 29.88278887 6.03515625 26.81640625 C5.8762793 25.97561523 5.71740234 25.13482422 5.55371094 24.26855469 C5.39161133 23.37555664 5.22951172 22.48255859 5.0625 21.5625 C3.67968958 14.27344845 2.15210189 7.10845777 0 0 Z " fill="#5E3AB0" transform="translate(269,257)"/>
<path d="M0 0 C0.66 0 1.32 0 2 0 C2.47993156 2.54152435 2.95896727 5.08321222 3.4375 7.625 C3.57220703 8.33785156 3.70691406 9.05070312 3.84570312 9.78515625 C4.11184972 11.20027718 4.37497106 12.61597054 4.63500977 14.03222656 C4.94797848 15.71953614 5.28063467 17.40317334 5.6171875 19.0859375 C6.06282521 22.4782409 5.93808862 25.58900272 5.6875 29 C5.60886719 30.175625 5.53023437 31.35125 5.44921875 32.5625 C5.00864501 35.93384686 4.18673601 38.8224538 3 42 C2.34 42 1.68 42 1 42 C1.16113281 40.88496094 1.32226562 39.76992187 1.48828125 38.62109375 C2.09235298 33.76179107 2.18377414 28.95455733 2.1875 24.0625 C2.19974609 23.22009766 2.21199219 22.37769531 2.22460938 21.50976562 C2.23972566 14.96441526 1.16768648 9.08032226 -0.62817383 2.80493164 C-0.81222778 1.91149048 -0.81222778 1.91149048 -1 1 C-0.67 0.67 -0.34 0.34 0 0 Z " fill="#5661C9" transform="translate(210,62)"/>
<path d="M0 0 C2.96035105 2.40958806 5.74386649 4.73038577 8.375 7.5 C14.17070005 13.01971433 20.88583958 15.95201134 28.265625 18.88671875 C30.57878381 19.82850484 32.78715654 20.84616019 35 22 C25.80594173 22.65671845 20.36707283 18.93562361 12.83203125 14.10546875 C10.64473764 12.7856306 8.41376847 11.82973291 6 11 C6 10.01 6 9.02 6 8 C5.195625 7.855625 4.39125 7.71125 3.5625 7.5625 C1 7 1 7 0 6 C-0.04080783 4.00041636 -0.04254356 1.99954746 0 0 Z " fill="#534EC1" transform="translate(101,127)"/>
<path d="M0 0 C0 3.63 0 7.26 0 11 C1.10859375 10.97679687 2.2171875 10.95359375 3.359375 10.9296875 C4.82290992 10.91092423 6.28645214 10.89272463 7.75 10.875 C8.84441406 10.84986328 8.84441406 10.84986328 9.9609375 10.82421875 C14.13521398 10.78627078 16.16970546 11.08485273 20 13 C12.08 13 4.16 13 -4 13 C-4 9.04 -4 5.08 -4 1 C-2 0 -2 0 0 0 Z " fill="#6A36D5" transform="translate(280,287)"/>
<path d="M0 0 C7.69189887 6.40991572 14.59008428 13.30810113 21 21 C20.67 21.66 20.34 22.32 20 23 C19.01 23 18.02 23 17 23 C17 22.01 17 21.02 17 20 C16.01 20 15.02 20 14 20 C10 14.85714286 10 14.85714286 10 11 C9.05125 10.690625 8.1025 10.38125 7.125 10.0625 C4 9 4 9 2 8 C1.3671875 6.15234375 1.3671875 6.15234375 0.875 3.9375 C0.70742187 3.20402344 0.53984375 2.47054687 0.3671875 1.71484375 C0.24601563 1.14894531 0.12484375 0.58304688 0 0 Z " fill="#503AC9" transform="translate(250,189)"/>
<path d="M0 0 C1.01320312 0.00902344 2.02640625 0.01804688 3.0703125 0.02734375 C5.54712801 0.05070993 8.02343379 0.08346832 10.5 0.125 C10.5 0.455 10.5 0.785 10.5 1.125 C9.53578125 1.17398438 8.5715625 1.22296875 7.578125 1.2734375 C6.31484375 1.34820312 5.0515625 1.42296875 3.75 1.5 C1.87054688 1.60441406 1.87054688 1.60441406 -0.046875 1.7109375 C-3.16548494 2.08488847 -4.80988021 2.67937488 -7.5 4.125 C-8.16 3.795 -8.82 3.465 -9.5 3.125 C-9.83 4.115 -10.16 5.105 -10.5 6.125 C-11.263125 5.939375 -12.02625 5.75375 -12.8125 5.5625 C-15.58967375 4.89680827 -15.58967375 4.89680827 -18.5 6.125 C-19.49 5.795 -20.48 5.465 -21.5 5.125 C-20.84 5.125 -20.18 5.125 -19.5 5.125 C-19.5 4.135 -19.5 3.145 -19.5 2.125 C-12.88384194 0.12439983 -6.88496734 -0.11746007 0 0 Z " fill="#4B77E7" transform="translate(149.5,-0.125)"/>
<path d="M0 0 C2.64 0 5.28 0 8 0 C8.33 0.66 8.66 1.32 9 2 C8.0625 4.625 8.0625 4.625 7 7 C5.68 7 4.36 7 3 7 C2.67 7.99 2.34 8.98 2 10 C0.35 10 -1.3 10 -3 10 C-3 10.99 -3 11.98 -3 13 C-3.639375 13.12375 -4.27875 13.2475 -4.9375 13.375 C-5.618125 13.58125 -6.29875 13.7875 -7 14 C-7.33 14.66 -7.66 15.32 -8 16 C-8 15.34 -8 14.68 -8 14 C-9.32 13.34 -10.64 12.68 -12 12 C-9.73192796 10.9932996 -7.46092246 9.99448234 -5.1875 9 C-4.54490234 8.71382812 -3.90230469 8.42765625 -3.24023438 8.1328125 C-0.32243531 6.86288959 1.78265714 6 5 6 C3.35 4.02 1.7 2.04 0 0 Z " fill="#5F56CA" transform="translate(95,153)"/>
<path d="M0 0 C0.99 0.99 1.98 1.98 3 3 C0.30862124 13.55554933 -3.69336606 22.50301433 -9 32 C-9.33 30.68 -9.66 29.36 -10 28 C-9.34 28 -8.68 28 -8 28 C-7.67 25.36 -7.34 22.72 -7 20 C-6.01 20 -5.02 20 -4 20 C-3.95101562 19.34773438 -3.90203125 18.69546875 -3.8515625 18.0234375 C-3.42611669 13.05012274 -2.78958328 8.69765611 -1 4 C-0.65023242 2.67088318 -0.30903983 1.33917261 0 0 Z " fill="#535AC5" transform="translate(232,102)"/>
<path d="M0 0 C0.33 0 0.66 0 1 0 C1.33 7.59 1.66 15.18 2 23 C2.66 23.33 3.32 23.66 4 24 C4.31241455 26.71446979 4.51336592 29.33909361 4.625 32.0625 C4.66367188 32.82111328 4.70234375 33.57972656 4.7421875 34.36132812 C4.83673562 36.24047195 4.91946756 38.12020336 5 40 C-2.01281049 29.48078427 -1.81984899 14.16333345 -1 2 C-0.67 1.34 -0.34 0.68 0 0 Z " fill="#616BCF" transform="translate(64,76)"/>
<path d="M0 0 C0.33 0 0.66 0 1 0 C1.4375 2.125 1.4375 2.125 1 5 C-0.41796875 6.31640625 -0.41796875 6.31640625 -2.25 7.6875 C-6.23390868 10.78788055 -7.51546986 13.96339017 -9.15625 18.65234375 C-10.11981116 21.33336345 -11.42184483 23.63276725 -13 26 C-13.99 25.67 -14.98 25.34 -16 25 C-11.67878844 15.7665297 -7.30100304 7.30100304 0 0 Z " fill="#4965D2" transform="translate(86,28)"/>
<path d="M0 0 C0 0.66 0 1.32 0 2 C-1.216875 2.45375 -2.43375 2.9075 -3.6875 3.375 C-4.41839844 3.65085937 -5.14929688 3.92671875 -5.90234375 4.2109375 C-7.51447632 4.81736353 -9.13128284 5.41137558 -10.75 6 C-13.0849025 6.91249561 -13.0849025 6.91249561 -15 8.6875 C-17 10 -17 10 -19.75 9.6875 C-20.4925 9.460625 -21.235 9.23375 -22 9 C-22 9.66 -22 10.32 -22 11 C-23.98 11.33 -25.96 11.66 -28 12 C-20.71383633 5.62460679 -9.7719907 0 0 0 Z " fill="#456ADB" transform="translate(130,3)"/>
<path d="M0 0 C0.66 0.33 1.32 0.66 2 1 C1.98428955 1.59312988 1.9685791 2.18625977 1.95239258 2.79736328 C1.68105943 14.62840455 1.71397534 25.53803303 5 37 C4.34 37 3.68 37 3 37 C2.67 35.02 2.34 33.04 2 31 C1.34 31 0.68 31 0 31 C-0.82936231 25.22737503 -1.15431156 19.64061475 -1.125 13.8125 C-1.12886719 13.03197266 -1.13273437 12.25144531 -1.13671875 11.44726562 C-1.13001984 7.49826092 -0.97345186 3.8551784 0 0 Z " fill="#5361C8" transform="translate(86,73)"/>
<path d="M0 0 C5.94 0 11.88 0 18 0 C18 0.66 18 1.32 18 2 C19.1446875 2.1546875 19.1446875 2.1546875 20.3125 2.3125 C23.17059424 3.04364039 24.15742885 3.76951913 26 6 C25.67 6.66 25.34 7.32 25 8 C24.05253906 7.61908203 24.05253906 7.61908203 23.0859375 7.23046875 C15.52623104 4.32205142 7.94476014 2.53096108 0 1 C0 0.67 0 0.34 0 0 Z " fill="#DFF1FB" transform="translate(160,0)"/>
<path d="M0 0 C5.58490476 4.44512827 9.79211991 9.24454091 14 15 C13.67 15.66 13.34 16.32 13 17 C10.9375 17.625 10.9375 17.625 9 18 C8.67 15.36 8.34 12.72 8 10 C7.236875 9.731875 6.47375 9.46375 5.6875 9.1875 C3.05139882 8.02271111 1.64668495 7.34002598 0 5 C-0.1875 2.3125 -0.1875 2.3125 0 0 Z " fill="#4363D9" transform="translate(208,23)"/>
<path d="M0 0 C0.66 0.66 1.32 1.32 2 2 C-5.51291897 3.10345997 -13.03059069 4.15986464 -20.5625 5.125 C-21.86316406 5.29257812 -23.16382813 5.46015625 -24.50390625 5.6328125 C-27.37800534 5.93467319 -30.11588849 6.07750012 -33 6 C-29.41226543 3.60817696 -27.01505368 3.47578288 -22.75 3 C-14.91229514 2.11865166 -7.91295647 -0.53647162 0 0 Z " fill="#3B63E5" transform="translate(156,20)"/>
<path d="M0 0 C0.66 0 1.32 0 2 0 C2.8125 3.1875 2.8125 3.1875 3 7 C0.84567661 9.678348 -0.92508839 11.46254419 -4 13 C-4.125 5.375 -4.125 5.375 -3 2 C-2.01 2 -1.02 2 0 2 C0 1.34 0 0.68 0 0 Z " fill="#5A3BC1" transform="translate(13,242)"/>
<path d="M0 0 C5.28 0 10.56 0 16 0 C13.26620224 1.36689888 11.02799303 2.39874174 8.1796875 3.2890625 C7.12974609 3.61777344 7.12974609 3.61777344 6.05859375 3.953125 C5.33800781 4.17484375 4.61742188 4.3965625 3.875 4.625 C3.14667969 4.85445313 2.41835937 5.08390625 1.66796875 5.3203125 C-3.74102493 7 -3.74102493 7 -6 7 C-6 6.01 -6 5.02 -6 4 C-4.35 4 -2.7 4 -1 4 C-0.67 2.68 -0.34 1.36 0 0 Z " fill="#E5F6FB" transform="translate(122,0)"/>
<path d="M0 0 C-1.72066106 5.44876003 -3.84705349 10.71169451 -6 16 C-6.66 15.01 -7.32 14.02 -8 13 C-8.99 12.67 -9.98 12.34 -11 12 C-11 11.01 -11 10.02 -11 9 C-9.35 8.67 -7.7 8.34 -6 8 C-5.896875 7.236875 -5.79375 6.47375 -5.6875 5.6875 C-4.83195622 2.34310158 -3.70341243 0 0 0 Z " fill="#5938B7" transform="translate(38,240)"/>
<path d="M0 0 C5.43192232 0.06113096 10.89658208 0.67499339 16.125 2.1875 C16.455 2.8475 16.785 3.5075 17.125 4.1875 C2.275 3.6925 2.275 3.6925 -12.875 3.1875 C-12.875 2.8575 -12.875 2.5275 -12.875 2.1875 C-10.82421875 1.95963542 -8.7734375 1.73177083 -6.72265625 1.50390625 C-3.44510481 0.94263423 -4.17389733 0.20196277 0 0 Z " fill="#6F62D8" transform="translate(152.875,170.8125)"/>
<path d="M0 0 C7.31041153 1.81464116 12.32771705 5.10547688 18 10 C17.01 10.495 17.01 10.495 16 11 C9.25806452 8.51612903 9.25806452 8.51612903 8 6 C5.6859378 5.26924352 3.35171131 4.59861742 1 4 C0.67 2.68 0.34 1.36 0 0 Z " fill="#436BD2" transform="translate(183,7)"/>
<path d="M0 0 C0.99 0 1.98 0 3 0 C1.83163035 3.29267809 0.32750446 6.18911893 -1.4375 9.1875 C-4.13078015 13.92066098 -5.65050263 18.74464033 -7 24 C-7.66 24 -8.32 24 -9 24 C-8.34 19.71 -7.68 15.42 -7 11 C-6.34 11 -5.68 11 -5 11 C-5 10.34 -5 9.68 -5 9 C-4.34 9 -3.68 9 -3 9 C-2.814375 8.1646875 -2.814375 8.1646875 -2.625 7.3125 C-1.94023145 4.77885636 -1.00866237 2.42078968 0 0 Z " fill="#4863CA" transform="translate(96,48)"/>
<path d="M0 0 C1 3 1 3 0.5 5.0625 C-1.81187758 8.04867521 -4.38431722 8.26460689 -8 9 C-10.9375 9.125 -10.9375 9.125 -13 9 C-9.39299028 4.76568424 -4.85413839 2.5307901 0 0 Z " fill="#5647D1" transform="translate(78,168)"/>
<path d="M0 0 C0.66 0.99 1.32 1.98 2 3 C1.36079057 5.00894394 0.68960962 7.00779443 0 9 C0 10.093125 0 11.18625 0 12.3125 C0 16.76354417 -0.90958969 20.70650942 -2 25 C-2.33 25 -2.66 25 -3 25 C-4.71471354 15.86728659 -2.96225888 8.70878683 0 0 Z " fill="#5B38BC" transform="translate(8,250)"/>
<path d="M0 0 C-3.20970449 1.63542086 -6.46807572 3.14031997 -9.75 4.625 C-10.73484375 5.07101563 -11.7196875 5.51703125 -12.734375 5.9765625 C-13.85585937 6.48316406 -13.85585937 6.48316406 -15 7 C-15 6.34 -15 5.68 -15 5 C-15.99 4.67 -16.98 4.34 -18 4 C-18.33 4.66 -18.66 5.32 -19 6 C-18.67 4.68 -18.34 3.36 -18 2 C-16.12612523 1.6603981 -14.25083303 1.32861309 -12.375 1 C-11.33085938 0.814375 -10.28671875 0.62875 -9.2109375 0.4375 C-6.09425135 0.01284203 -3.14069188 -0.07545206 0 0 Z " fill="#456BE5" transform="translate(134,25)"/>
<path d="M0 0 C0.99 0.66 1.98 1.32 3 2 C0.86274108 4.21641666 -1.26859074 6.21237408 -3.6875 8.125 C-6.06757788 9.79090954 -6.06757788 9.79090954 -7 12 C-10.28324906 14.28003407 -13.04628701 15.43518386 -17 16 C-16.319375 15.46375 -15.63875 14.9275 -14.9375 14.375 C-12.71457454 12.57774112 -10.50232519 10.77457093 -8.3125 8.9375 C-7.44044922 8.20853516 -7.44044922 8.20853516 -6.55078125 7.46484375 C-4.76036759 5.8831847 -4.76036759 5.8831847 -3 3 C-2.34 3 -1.68 3 -1 3 C-0.67 2.01 -0.34 1.02 0 0 Z " fill="#5552BD" transform="translate(200,125)"/>
<path d="M0 0 C0.66 0 1.32 0 2 0 C-0.08979859 6.07941409 -3.31573464 12.63154646 -9 16 C-9.33 15.01 -9.66 14.02 -10 13 C-7.55961592 8.68239739 -4.53556924 5.44001332 -1 2 C-0.67 1.34 -0.34 0.68 0 0 Z " fill="#EEEEFD" transform="translate(204,115)"/>
<path d="M0 0 C0.66 0 1.32 0 2 0 C2.47993156 2.54152435 2.95896727 5.08321222 3.4375 7.625 C3.57220703 8.33785156 3.70691406 9.05070312 3.84570312 9.78515625 C4.61018271 13.84995013 5.33669637 17.91714075 6 22 C5.34 21.67 4.68 21.34 4 21 C3.21925648 18.39261125 2.54667628 15.83498475 1.9375 13.1875 C1.76412109 12.46240234 1.59074219 11.73730469 1.41210938 10.99023438 C0.93562936 8.99486023 0.46749937 6.99749732 0 5 C-0.20423584 4.28110596 -0.40847168 3.56221191 -0.61889648 2.8215332 C-0.74466064 2.22042725 -0.8704248 1.61932129 -1 1 C-0.67 0.67 -0.34 0.34 0 0 Z " fill="#495FD0" transform="translate(210,62)"/>
<path d="M0 0 C2.4375 0.75 2.4375 0.75 5 2 C5.8125 4.125 5.8125 4.125 6 6 C6.66 6 7.32 6 8 6 C9.60355101 9.50776784 10.22036864 12.14354879 10 16 C7.5889499 12.8767628 5.43161021 9.63999171 3.3125 6.3125 C2.37857422 4.85263672 2.37857422 4.85263672 1.42578125 3.36328125 C0 1 0 1 0 0 Z " fill="#4964D0" transform="translate(199,46)"/>
<path d="M0 0 C0.66 0 1.32 0 2 0 C2 0.99 2 1.98 2 3 C2.66 3 3.32 3 4 3 C4 9.6 4 16.2 4 23 C3.67 23 3.34 23 3 23 C2.80083984 21.38931641 2.80083984 21.38931641 2.59765625 19.74609375 C2.41930436 18.30989167 2.24091705 16.87369399 2.0625 15.4375 C1.97548828 14.73302734 1.88847656 14.02855469 1.79882812 13.30273438 C1.24615509 8.86088073 0.64605404 4.42925336 0 0 Z " fill="#F3DFFE" transform="translate(296,265)"/>
<path d="M0 0 C0.99 0.33 1.98 0.66 3 1 C4.52016163 9.41518047 5.27733386 17.4488728 5 26 C4.34 25.34 3.68 24.68 3 24 C3 21.88272241 3.00721865 19.76509169 3.05859375 17.6484375 C2.92652817 11.67907318 1.491449 5.76424882 0 0 Z " fill="#592CC5" transform="translate(273,264)"/>
<path d="M0 0 C0.66 0 1.32 0 2 0 C2 0.66 2 1.32 2 2 C2.639375 1.814375 3.27875 1.62875 3.9375 1.4375 C4.9584375 1.2209375 4.9584375 1.2209375 6 1 C6.33 1.33 6.66 1.66 7 2 C9.52596259 2.23653523 12.03107207 2.42173692 14.5625 2.5625 C15.27341797 2.60568359 15.98433594 2.64886719 16.71679688 2.69335938 C18.47761912 2.79971777 20.2387832 2.90038846 22 3 C22 3.33 22 3.66 22 4 C14.41 4 6.82 4 -1 4 C-0.67 2.68 -0.34 1.36 0 0 Z " fill="#642AD6" transform="translate(1,296)"/>
<path d="M0 0 C3.33333333 3.33333333 6.66666667 6.66666667 10 10 C9.67 10.66 9.34 11.32 9 12 C8.01 12 7.02 12 6 12 C6 11.01 6 10.02 6 9 C5.01 9 4.02 9 3 9 C2.01 6.03 1.02 3.06 0 0 Z " fill="#5C49CB" transform="translate(261,200)"/>
<path d="M0 0 C1.67542976 0.28604898 3.34385343 0.61781233 5 1 C2.89851796 4.98175544 0.63094642 7.35039045 -3 10 C-2.69201674 8.51988629 -2.378482 7.04092675 -2.0625 5.5625 C-1.88847656 4.73878906 -1.71445312 3.91507813 -1.53515625 3.06640625 C-1 1 -1 1 0 0 Z " fill="#F5F3F4" transform="translate(39,192)"/>
<path d="M0 0 C0.33 0 0.66 0 1 0 C1 7.26 1 14.52 1 22 C0.34 22.33 -0.32 22.66 -1 23 C-2.125 15.375 -2.125 15.375 -1 12 C-0.77674186 9.94106379 -0.59294241 7.87766347 -0.4375 5.8125 C-0.35371094 4.72582031 -0.26992187 3.63914062 -0.18359375 2.51953125 C-0.12300781 1.68808594 -0.06242188 0.85664062 0 0 Z " fill="#4152DB" transform="translate(234,83)"/>
<path d="M0 0 C2 0 2 0 4.0625 1.875 C6 4 6 4 7 6 C7.66 6.66 8.32 7.32 9 8 C9.625 10.625 9.625 10.625 10 13 C6.37114422 11.54845769 4.84567327 9.7599362 2.75 6.5 C1.96882812 5.30890625 1.96882812 5.30890625 1.171875 4.09375 C0 2 0 2 0 0 Z " fill="#543CBA" transform="translate(252,224)"/>
<path d="M0 0 C1.9375 0.375 1.9375 0.375 4 1 C5.44207941 3.88415883 5.09394887 6.41721528 5.0625 9.625 C5.05347656 10.81351563 5.04445312 12.00203125 5.03515625 13.2265625 C5.02355469 14.14179687 5.01195312 15.05703125 5 16 C3.15209462 12.68983906 2.25458513 9.42826509 1.375 5.75 C0.98441406 4.13351563 0.98441406 4.13351563 0.5859375 2.484375 C0.39257812 1.66453125 0.19921875 0.8446875 0 0 Z " fill="#DBEEFD" transform="translate(231,56)"/>
<path d="M0 0 C0.33 0 0.66 0 1 0 C1.25 2.26171875 1.25 2.26171875 1 5 C-0.75 7.01953125 -0.75 7.01953125 -3 8.8125 C-3.7425 9.41707031 -4.485 10.02164063 -5.25 10.64453125 C-5.8275 11.09183594 -6.405 11.53914063 -7 12 C-7.66 11.67 -8.32 11.34 -9 11 C-7.87672229 9.54033966 -6.75131706 8.08231636 -5.625 6.625 C-4.99851562 5.81289063 -4.37203125 5.00078125 -3.7265625 4.1640625 C-2 2 -2 2 0 0 Z " fill="#5470D0" transform="translate(86,28)"/>
<path d="M0 0 C0.66 0 1.32 0 2 0 C2.66 2.31 3.32 4.62 4 7 C-2.6 6.67 -9.2 6.34 -16 6 C-16 5.67 -16 5.34 -16 5 C-10.72 5 -5.44 5 0 5 C0 3.35 0 1.7 0 0 Z " fill="#591FCA" transform="translate(296,292)"/>
<path d="M0 0 C0.66 0.33 1.32 0.66 2 1 C2.44921875 3.43359375 2.44921875 3.43359375 2.6875 6.4375 C2.77386719 7.42621094 2.86023438 8.41492188 2.94921875 9.43359375 C3 12 3 12 2 14 C1.34 14 0.68 14 0 14 C-0.19532961 12.2300132 -0.38098882 10.45895721 -0.5625 8.6875 C-0.66691406 7.70136719 -0.77132813 6.71523437 -0.87890625 5.69921875 C-1 3 -1 3 0 0 Z " fill="#532ECC" transform="translate(269,243)"/>
<path d="M0 0 C2.7343066 2.7343066 2.95340665 4.76993555 3.09765625 8.578125 C3.08605469 9.45984375 3.07445312 10.3415625 3.0625 11.25 C3.05347656 12.14203125 3.04445313 13.0340625 3.03515625 13.953125 C3.02355469 14.62859375 3.01195312 15.3040625 3 16 C0.49399686 13.49399686 0.02945209 11.81405575 -0.09765625 8.30078125 C-0.08605469 7.31464844 -0.07445312 6.32851563 -0.0625 5.3125 C-0.05347656 4.31863281 -0.04445313 3.32476562 -0.03515625 2.30078125 C-0.02355469 1.54152344 -0.01195312 0.78226562 0 0 Z " fill="#613AB9" transform="translate(295,266)"/>
<path d="M0 0 C0.33 0 0.66 0 1 0 C0.40380045 4.86896303 -0.56976822 9.32790951 -2 14 C-3.32 14.33 -4.64 14.66 -6 15 C-4.36041242 9.76727367 -2.61047965 4.84803364 0 0 Z " fill="#EFE1FC" transform="translate(38,240)"/>
<path d="M0 0 C4.43601966 3.51822249 5.52033129 7.75390186 7 13 C4.5625 12.3125 4.5625 12.3125 2 11 C1.25 8.75 1.25 8.75 1 6 C0.814375 4.906875 0.62875 3.81375 0.4375 2.6875 C0.293125 1.800625 0.14875 0.91375 0 0 Z " fill="#583FD0" transform="translate(271,212)"/>
<path d="M0 0 C0.66 0.33 1.32 0.66 2 1 C0.8759417 4.25976906 0.07187022 4.96186478 -3.0625 6.625 C-4.031875 7.07875 -5.00125 7.5325 -6 8 C-6.33 8.66 -6.66 9.32 -7 10 C-8.32 9.67 -9.64 9.34 -11 9 C-7.37 6.03 -3.74 3.06 0 0 Z " fill="#5C4DC5" transform="translate(63,177)"/>
<path d="M0 0 C0.66 0 1.32 0 2 0 C1.84518205 2.70931419 1.51827919 4.46584039 -0.40234375 6.4453125 C-1.89771708 7.67679642 -3.4462924 8.8429837 -5 10 C-5.33 8.35 -5.66 6.7 -6 5 C-5.01 4.67 -4.02 4.34 -3 4 C-2.34 3.34 -1.68 2.68 -1 2 C-0.34 2.33 0.32 2.66 1 3 C0.67 2.01 0.34 1.02 0 0 Z " fill="#5E49CC" transform="translate(62,204)"/>
<path d="M0 0 C-0.33 0.99 -0.66 1.98 -1 3 C-6.3769322 5.20018889 -12.28454981 5.20783455 -18 5 C-14.77089058 3.11635284 -11.50766977 2.30216515 -7.90234375 1.46484375 C-1.90756303 0 -1.90756303 0 0 0 Z " fill="#635CC8" transform="translate(176,145)"/>
<path d="M0 0 C0.33 0 0.66 0 1 0 C1.25 7.625 1.25 7.625 -1 11 C-1.39013716 12.9896995 -1.73202649 14.99019869 -2 17 C-2.66 17 -3.32 17 -4 17 C-3.45018084 10.95198929 -2.09570426 5.69398894 0 0 Z " fill="#4E66C9" transform="translate(69,55)"/>
<path d="M0 0 C-0.804375 0.28875 -1.60875 0.5775 -2.4375 0.875 C-5.1326468 1.73262568 -5.1326468 1.73262568 -6 4 C-8.31847874 4.7166207 -10.65319703 5.38242027 -13 6 C-13.99 6.495 -13.99 6.495 -15 7 C-15.66 6.34 -16.32 5.68 -17 5 C-14.9237343 3.96486753 -12.83868521 2.94733789 -10.75 1.9375 C-9.58984375 1.36902344 -8.4296875 0.80054687 -7.234375 0.21484375 C-4.09355667 -0.96485975 -3.00646952 -1.30230734 0 0 Z " fill="#E0EDFD" transform="translate(134,27)"/>
<path d="M0 0 C-1.09601169 1.00893131 -2.20213918 2.00688225 -3.3125 3 C-4.23482422 3.8353125 -4.23482422 3.8353125 -5.17578125 4.6875 C-7 6 -7 6 -10 6 C-9.8125 4.1875 -9.8125 4.1875 -9 2 C-5.61622028 -0.65215167 -4.04977162 -1.2693314 0 0 Z " fill="#5A54CF" transform="translate(209,151)"/>
<path d="M0 0 C0.33 0 0.66 0 1 0 C1.38281159 5.23175837 0.21854707 8.37802694 -2 13 C-2.33 13 -2.66 13 -3 13 C-3.17791204 8.46324303 -3.0461125 5.092225 -1 1 C-0.67 0.67 -0.34 0.34 0 0 Z " fill="#EBF0FE" transform="translate(238,94)"/>
<path d="M0 0 C2.10494301 0.08708038 4.20902142 0.19525693 6.3125 0.3125 C8.07013672 0.39951172 8.07013672 0.39951172 9.86328125 0.48828125 C13.0983686 1.01604768 14.08684881 1.42380724 16 4 C15.67 4.66 15.34 5.32 15 6 C13.24890978 5.37806106 11.49916969 4.75232002 9.75 4.125 C8.28820312 3.60292969 8.28820312 3.60292969 6.796875 3.0703125 C4.43705673 2.16725355 2.23094884 1.17921582 0 0 Z " fill="#D4EBFB" transform="translate(170,2)"/>
<path d="M0 0 C4.95 0 9.9 0 15 0 C14.67 0.99 14.34 1.98 14 3 C4.58997722 2.03644647 4.58997722 2.03644647 0 1 C0 0.67 0 0.34 0 0 Z " fill="#3465E9" transform="translate(147,1)"/>
<path d="M0 0 C3.33511388 2.9901021 5.21521119 5.89498574 7 10 C7 10.66 7 11.32 7 12 C6.01 11.67 5.02 11.34 4 11 C3.3125 8.9375 3.3125 8.9375 3 7 C2.34 7 1.68 7 1 7 C0.67 4.69 0.34 2.38 0 0 Z " fill="#ECE3FB" transform="translate(256,232)"/>
<path d="M0 0 C0.99 0 1.98 0 3 0 C2.34 2.31 1.68 4.62 1 7 C-0.32 7.33 -1.64 7.66 -3 8 C-2.45276317 4.62537285 -1.9451 2.91765 0 0 Z " fill="#5333D1" transform="translate(23,222)"/>
<path d="M0 0 C2.64 0.33 5.28 0.66 8 1 C8 1.66 8 2.32 8 3 C6.9275 3.12375 5.855 3.2475 4.75 3.375 C1.62136385 3.89643936 -0.33480424 4.40088254 -3 6 C-3 5.34 -3 4.68 -3 4 C-3.66 3.67 -4.32 3.34 -5 3 C-3.35 3 -1.7 3 0 3 C0 2.01 0 1.02 0 0 Z " fill="#503CE9" transform="translate(104,175)"/>
<path d="M0 0 C0.33 1.65 0.66 3.3 1 5 C-4.75 3.375 -4.75 3.375 -7 0 C-3.86650268 -1.04449911 -3.01031744 -0.93423645 0 0 Z " fill="#E3E4F4" transform="translate(119,137)"/>
<path d="M0 0 C2 2 2 2 2 6 C1.34 6 0.68 6 0 6 C-0.33 8.64 -0.66 11.28 -1 14 C-1.66 14 -2.32 14 -3 14 C-2.48594831 9.03083364 -1.76615118 4.70973649 0 0 Z " fill="#ECDEFB" transform="translate(30,258)"/>
<path d="M0 0 C-2.69067269 1.79378179 -5.08578257 2.97313958 -8.0625 4.1875 C-8.94035156 4.55230469 -9.81820312 4.91710937 -10.72265625 5.29296875 C-13 6 -13 6 -15 5 C-13.9375 3.0625 -13.9375 3.0625 -12 1 C-7.97747985 0.10610663 -4.1115482 -0.12459237 0 0 Z " fill="#5E52C7" transform="translate(117,177)"/>
<path d="M0 0 C0.66 0.66 1.32 1.32 2 2 C-0.31 5.63 -2.62 9.26 -5 13 C-6 9 -6 9 -4.1875 5.9375 C-3.465625 4.968125 -2.74375 3.99875 -2 3 C-1.34 2.01 -0.68 1.02 0 0 Z " fill="#E7F3FD" transform="translate(80,31)"/>
<path d="M0 0 C7.62314474 -0.23576736 14.58569409 0.16282685 22 2 C18.2578125 4.0390625 18.2578125 4.0390625 15.9375 3.6875 C15.298125 3.460625 14.65875 3.23375 14 3 C10.99221479 1.99740493 8.46179353 1.69685358 5.3125 1.4375 C4.31863281 1.35371094 3.32476562 1.26992188 2.30078125 1.18359375 C1.16189453 1.09271484 1.16189453 1.09271484 0 1 C0 0.67 0 0.34 0 0 Z " fill="#BDD3FB" transform="translate(144,23)"/>
<path d="M0 0 C3.3 0 6.6 0 10 0 C10 0.66 10 1.32 10 2 C11.32 2.33 12.64 2.66 14 3 C14 3.66 14 4.32 14 5 C12.22739369 4.54857225 10.4569632 4.08859477 8.6875 3.625 C7.20830078 3.24214844 7.20830078 3.24214844 5.69921875 2.8515625 C3 2 3 2 0 0 Z " fill="#6458C7" transform="translate(182,177)"/>
<path d="M0 0 C5.875 4.625 5.875 4.625 7 8 C1.125 7.125 1.125 7.125 0 6 C-0.04080783 4.00041636 -0.04254356 1.99954746 0 0 Z " fill="#5254CC" transform="translate(101,127)"/>
<path d="M0 0 C0.66 0 1.32 0 2 0 C2.05399736 1.45792884 2.09279177 2.91642712 2.125 4.375 C2.14820313 5.18710938 2.17140625 5.99921875 2.1953125 6.8359375 C2 9 2 9 0 11 C-1.49297212 8.01405576 -1.11755228 5.29146376 -1 2 C-0.67 1.34 -0.34 0.68 0 0 Z " fill="#3A58E9" transform="translate(213,60)"/>
<path d="M0 0 C0.33 1.32 0.66 2.64 1 4 C-2.19990508 6.74277578 -5.00499382 8.6302836 -9 10 C-7.6875 8 -7.6875 8 -6 6 C-5.01 6 -4.02 6 -3 6 C-2.814375 5.071875 -2.814375 5.071875 -2.625 4.125 C-2 2 -2 2 0 0 Z " fill="#4F38D5" transform="translate(47,193)"/>
<path d="M0 0 C0.99 0.33 1.98 0.66 3 1 C2 3 2 3 -0.375 3.9375 C-2.99208154 4.99679491 -4.09578138 6.0051043 -6 8 C-6.66 8 -7.32 8 -8 8 C-8 7.01 -8 6.02 -8 5 C-7.34 5 -6.68 5 -6 5 C-6 4.34 -6 3.68 -6 3 C-4.02 2.67 -2.04 2.34 0 2 C0 1.34 0 0.68 0 0 Z " fill="#3C63EC" transform="translate(108,12)"/>
<path d="M0 0 C0.99 0 1.98 0 3 0 C3.33951619 1.56116819 3.67132544 3.12401338 4 4.6875 C4.185625 5.55761719 4.37125 6.42773438 4.5625 7.32421875 C4.98972047 9.93712964 5.07616201 12.35813038 5 15 C3.26830404 11.8377726 2.2871024 8.73257278 1.375 5.25 C1.11460937 4.26515625 0.85421875 3.2803125 0.5859375 2.265625 C0.39257812 1.51796875 0.19921875 0.7703125 0 0 Z " fill="#5F41BA" transform="translate(269,257)"/>
<path d="M0 0 C2.64 0 5.28 0 8 0 C8.33 0.66 8.66 1.32 9 2 C8.0625 4.625 8.0625 4.625 7 7 C6.67 6.01 6.34 5.02 6 4 C4.34795544 3.29788106 2.68076231 2.63028587 1 2 C0.67 1.34 0.34 0.68 0 0 Z " fill="#5049CA" transform="translate(95,153)"/>
<path d="M0 0 C0.99 0.33 1.98 0.66 3 1 C3 1.66 3 2.32 3 3 C3.99 3.33 4.98 3.66 6 4 C6.33 5.98 6.66 7.96 7 10 C2.69016865 7.47354714 1.70057975 4.50653635 0 0 Z " fill="#5957C7" transform="translate(74,128)"/>
<path d="M0 0 C1.55078125 1.20703125 1.55078125 1.20703125 3 3 C2.85546875 5.26171875 2.85546875 5.26171875 2.1875 7.6875 C1.97480469 8.49574219 1.76210937 9.30398437 1.54296875 10.13671875 C1.27419922 11.05904297 1.27419922 11.05904297 1 12 C0.34 11.67 -0.32 11.34 -1 11 C-1.14285714 3.57142857 -1.14285714 3.57142857 0 0 Z " fill="#5961D4" transform="translate(232,102)"/>
<path d="M0 0 C1.37871915 3.82977542 0.87113444 7.07989501 0 11 C-0.99 11.66 -1.98 12.32 -3 13 C-3.33 12.01 -3.66 11.02 -4 10 C-3.67 9.34 -3.34 8.68 -3 8 C-2.34 8 -1.68 8 -1 8 C-1.020625 7.05125 -1.04125 6.1025 -1.0625 5.125 C-1 2 -1 2 0 0 Z " fill="#405AE2" transform="translate(68,64)"/>
<path d="M0 0 C2.64 0.33 5.28 0.66 8 1 C8 2.65 8 4.3 8 6 C5 6 5 6 3.61328125 4.6875 C2.40885417 3.125 1.20442708 1.5625 0 0 Z " fill="#4F68D7" transform="translate(192,39)"/>
<path d="M0 0 C0.96070434 2.88211302 1.10581883 4.69850044 1.0625 7.6875 C1.05347656 8.49574219 1.04445313 9.30398438 1.03515625 10.13671875 C1.02355469 10.75160156 1.01195312 11.36648438 1 12 C0.34 12 -0.32 12 -1 12 C-1.22162329 10.37675914 -1.42689803 8.751279 -1.625 7.125 C-1.74101562 6.22007812 -1.85703125 5.31515625 -1.9765625 4.3828125 C-1.98429687 3.59648437 -1.99203125 2.81015625 -2 2 C-1.34 1.34 -0.68 0.68 0 0 Z " fill="#5B24C6" transform="translate(22,287)"/>
<path d="M0 0 C0.625 2.3125 0.625 2.3125 1 5 C0.01 6.485 0.01 6.485 -1 8 C-1.33 7.01 -1.66 6.02 -2 5 C-2.99 4.67 -3.98 4.34 -5 4 C-5 3.01 -5 2.02 -5 1 C-3 0 -3 0 0 0 Z " fill="#5A38D2" transform="translate(32,248)"/>
<path d="M0 0 C0.99 0.33 1.98 0.66 3 1 C2.01 2.485 2.01 2.485 1 4 C0.34 4 -0.32 4 -1 4 C-1.66 5.32 -2.32 6.64 -3 8 C-3.66 8 -4.32 8 -5 8 C-4.67 6.35 -4.34 4.7 -4 3 C-2.68 3 -1.36 3 0 3 C0 2.01 0 1.02 0 0 Z " fill="#5858CB" transform="translate(214,141)"/>
<path d="M0 0 C1.65 0 3.3 0 5 0 C3.12050295 3.57104439 1.82946843 5.54744301 -2 7 C-1.34 4.69 -0.68 2.38 0 0 Z " fill="#5830DE" transform="translate(11,248)"/>
<path d="M0 0 C0.66 0.33 1.32 0.66 2 1 C0.02 3.97 -1.96 6.94 -4 10 C-5 6 -5 6 -4.00390625 4.296875 C-2.66927083 2.86458333 -1.33463542 1.43229167 0 0 Z " fill="#EBE3FC" transform="translate(29,208)"/>
<path d="M0 0 C0.99 0.33 1.98 0.66 3 1 C3.8125 2.9375 3.8125 2.9375 4 5 C3.34 5.66 2.68 6.32 2 7 C0.68 5.02 -0.64 3.04 -2 1 C-1.34 0.67 -0.68 0.34 0 0 Z " fill="#ECF0F8" transform="translate(99,120)"/>
<path d="M0 0 C0.33 0.66 0.66 1.32 1 2 C0.34 2 -0.32 2 -1 2 C-1 2.99 -1 3.98 -1 5 C-6.625 8 -6.625 8 -10 8 C-6.7 5.36 -3.4 2.72 0 0 Z " fill="#546FCB" transform="translate(101,15)"/>
<path d="M0 0 C0.99 0 1.98 0 3 0 C3.1875 3.375 3.1875 3.375 3 7 C2.01 7.66 1.02 8.32 0 9 C0 6.03 0 3.06 0 0 Z " fill="#5D27BF" transform="translate(1,284)"/>
<path d="M0 0 C2.62187494 1.04874998 3.79371361 1.64931313 5.25 4.125 C5.4975 4.74375 5.745 5.3625 6 6 C3 6 3 6 1.3125 4.6875 C0 3 0 3 0 0 Z " fill="#FBFEEF" transform="translate(224,201)"/>
<path d="M0 0 C2.64 0.66 5.28 1.32 8 2 C7.01 2.99 6.02 3.98 5 5 C2.525 4.01 2.525 4.01 0 3 C0 2.01 0 1.02 0 0 Z " fill="#5A56C7" transform="translate(200,159)"/>
<path d="M0 0 C0.33 0.66 0.66 1.32 1 2 C0.01 3.485 0.01 3.485 -1 5 C-1.66 5 -2.32 5 -3 5 C-3.33 6.65 -3.66 8.3 -4 10 C-4.66 10 -5.32 10 -6 10 C-5.58578031 5.16743695 -3.53586014 3.17320782 0 0 Z " fill="#3C5AEB" transform="translate(84,34)"/>
<path d="M0 0 C1.32 0.33 2.64 0.66 4 1 C3.67 2.65 3.34 4.3 3 6 C2.01 5.67 1.02 5.34 0 5 C0 3.35 0 1.7 0 0 Z " fill="#5636E2" transform="translate(243,208)"/>
<path d="M0 0 C0.66 0.33 1.32 0.66 2 1 C0.74523029 4.76430913 -0.69422618 5.05044108 -4 7 C-4 7.66 -4 8.32 -4 9 C-4.66 9 -5.32 9 -6 9 C-5.52797514 4.75177626 -3.03344482 2.80010291 0 0 Z " fill="#503DB9" transform="translate(43,195)"/>
<path d="M0 0 C1.32 0 2.64 0 4 0 C5.35439668 2.70879335 5.06501451 5.00933268 5 8 C2.74754119 5.31158141 1.11786042 3.35358125 0 0 Z " fill="#DFECFB" transform="translate(223,40)"/>
<path d="M0 0 C1.14926266 0.95421808 2.29430541 1.91352045 3.4375 2.875 C4.07558594 3.40867188 4.71367187 3.94234375 5.37109375 4.4921875 C7 6 7 6 8 8 C3.25 6.125 3.25 6.125 1 5 C0.375 2.4375 0.375 2.4375 0 0 Z " fill="#5242B7" transform="translate(250,189)"/>
<path d="M0 0 C0.66 0.33 1.32 0.66 2 1 C0.02 3.97 0.02 3.97 -2 7 C-3.32 6.67 -4.64 6.34 -6 6 C-5.195625 5.38125 -4.39125 4.7625 -3.5625 4.125 C-0.96125481 2.25835959 -0.96125481 2.25835959 0 0 Z " fill="#E1E3FB" transform="translate(209,149)"/>
<path d="M0 0 C0.99 0.66 1.98 1.32 3 2 C1.1875 4 1.1875 4 -1 6 C-1.99 6 -2.98 6 -4 6 C-3.67 5.01 -3.34 4.02 -3 3 C-2.34 3 -1.68 3 -1 3 C-0.67 2.01 -0.34 1.02 0 0 Z " fill="#5D59CE" transform="translate(200,125)"/>
<path d="M0 0 C-2.35277269 2.72426311 -4.62496331 3.8141763 -8 5 C-7.625 3.0625 -7.625 3.0625 -7 1 C-4.53721199 -0.231394 -2.7204945 -0.07159196 0 0 Z " fill="#E5F3FD" transform="translate(112,8)"/>
<path d="M0 0 C1.76462683 3.08809695 2 4.23312136 2 8 C1.01 8 0.02 8 -1 8 C-1.125 2.25 -1.125 2.25 0 0 Z " fill="#E6D6F8" transform="translate(273,272)"/>
<path d="M0 0 C1.32 0.33 2.64 0.66 4 1 C4 3.31 4 5.62 4 8 C1.84622436 5.37801226 0.59927826 3.35595828 0 0 Z " fill="#EADEFA" transform="translate(280,224)"/>
<path d="M0 0 C1.65 0 3.3 0 5 0 C3.35 1.98 1.7 3.96 0 6 C-1 3 -1 3 0 0 Z " fill="#E0DBF6" transform="translate(37,196)"/>
<path d="M0 0 C0.33 0.99 0.66 1.98 1 3 C-0.98 3.99 -2.96 4.98 -5 6 C-5.66 5.34 -6.32 4.68 -7 4 C-4.69 2.68 -2.38 1.36 0 0 Z " fill="#6259CA" transform="translate(78,168)"/>
<path d="M0 0 C0.93065133 2.60582371 1.14917407 3.64198224 0.0625 6.25 C-0.4634375 7.11625 -0.4634375 7.11625 -1 8 C-1.99 7.34 -2.98 6.68 -4 6 C-2.68 4.02 -1.36 2.04 0 0 Z " fill="#6264D4" transform="translate(205,117)"/>
<path d="M0 0 C0.66 1.32 1.32 2.64 2 4 C0.625 6 0.625 6 -1 8 C-1.66 8 -2.32 8 -3 8 C-1.125 2.25 -1.125 2.25 0 0 Z " fill="#DCE2FA" transform="translate(229,121)"/>
<path d="M0 0 C2.83374881 3.20336822 3.5205537 5.78087253 4 10 C1.2027092 7.93243723 0.97307727 6.85559629 0.3125 3.3125 C0.209375 2.219375 0.10625 1.12625 0 0 Z " fill="#576BCF" transform="translate(227,48)"/>
<path d="M0 0 C-3.22515763 1.73662334 -6.51329166 2.8905928 -10 4 C-10 3.01 -10 2.02 -10 1 C-6.61981469 -0.04005702 -3.5219721 -0.08004482 0 0 Z " fill="#546FD3" transform="translate(134,25)"/>
<path d="M0 0 C-0.33 0.99 -0.66 1.98 -1 3 C-3.64 3.33 -6.28 3.66 -9 4 C-6.19632015 0.92930303 -4.26207314 0 0 0 Z " fill="#4B72D6" transform="translate(118,7)"/>
<path d="M0 0 C-3.28463659 2.18975773 -6.20696275 2.99806563 -10 4 C-10 3.01 -10 2.02 -10 1 C-6.59437148 0.22157062 -3.49234244 -0.09978121 0 0 Z " fill="#D2E6FE" transform="translate(126,3)"/>
<path d="M0 0 C2.64752004 2.57784846 4.94432065 4.91648098 7 8 C5 7 3 6 1 5 C0.375 2.4375 0.375 2.4375 0 0 Z " fill="#5948B2" transform="translate(261,200)"/>
<path d="M0 0 C0.66 0.33 1.32 0.66 2 1 C0.68 1.99 -0.64 2.98 -2 4 C-1.34 2.68 -0.68 1.36 0 0 Z M-6 4 C-4.68 4.33 -3.36 4.66 -2 5 C-2.33 5.66 -2.66 6.32 -3 7 C-3.99 7 -4.98 7 -6 7 C-6 6.01 -6 5.02 -6 4 Z " fill="#4E38D9" transform="translate(58,183)"/>
<path d="M0 0 C2.6875 0.3125 2.6875 0.3125 5 1 C4.67 1.66 4.34 2.32 4 3 C1.69 3 -0.62 3 -3 3 C-1.8125 1.4375 -1.8125 1.4375 0 0 Z " fill="#4E41C1" transform="translate(82,166)"/>
<path d="M0 0 C0.66 0 1.32 0 2 0 C2 2.31 2 4.62 2 7 C1.01 7 0.02 7 -1 7 C-0.67 4.69 -0.34 2.38 0 0 Z " fill="#335EF3" transform="translate(97,41)"/>
<path d="M0 0 C2.31 0.33 4.62 0.66 7 1 C6.67 2.32 6.34 3.64 6 5 C4.02 4.01 2.04 3.02 0 2 C0 1.34 0 0.68 0 0 Z " fill="#DEF0FB" transform="translate(187,7)"/>
<path d="M0 0 C2.31 0 4.62 0 7 0 C7 0.66 7 1.32 7 2 C7.99 2.33 8.98 2.66 10 3 C8.5199159 2.88637738 7.04089926 2.75877092 5.5625 2.625 C4.73878906 2.55539062 3.91507813 2.48578125 3.06640625 2.4140625 C2.38449219 2.27742187 1.70257813 2.14078125 1 2 C0.67 1.34 0.34 0.68 0 0 Z " fill="#3769EC" transform="translate(162,3)"/>
</svg>
